<?xml version="1.0" encoding="UTF-8"?>
<svg version="1.1" xmlns="http://www.w3.org/2000/svg" width="512" height="512">
<path d="M0 0 C1.30236011 -0.00644889 2.60472021 -0.01289778 3.94654578 -0.0195421 C5.37973551 -0.01660023 6.81292485 -0.01346482 8.24611378 -0.01015663 C9.77803086 -0.01389514 11.30994604 -0.01849746 12.84185821 -0.02388728 C17.0442828 -0.03610808 21.24662774 -0.03585789 25.44906604 -0.03349853 C29.98433301 -0.03309012 34.51957452 -0.04413181 39.0548296 -0.05361366 C47.93798918 -0.07022 56.82112221 -0.07572306 65.70429602 -0.07683842 C72.92657053 -0.07778914 80.1488363 -0.08190066 87.37110806 -0.08823967 C107.85452807 -0.1058517 128.33792713 -0.11507869 148.82135477 -0.11357872 C149.92540662 -0.11349881 151.02945847 -0.1134189 152.16696644 -0.11333656 C153.2723689 -0.1132548 154.37777136 -0.11317304 155.51667086 -0.1130888 C173.42690002 -0.11227609 191.33704504 -0.13141012 209.24724986 -0.1596133 C227.6441373 -0.18835386 246.04098371 -0.20215292 264.43789417 -0.20042574 C274.76357756 -0.19976221 285.08917277 -0.2052384 295.41483593 -0.22678185 C304.20735018 -0.24500913 312.99973628 -0.24932831 321.79226127 -0.235763 C326.27580122 -0.22924095 330.75909543 -0.22908845 335.24261189 -0.2464695 C339.35289991 -0.26223932 343.46274813 -0.25929699 347.57302568 -0.24190123 C349.0541796 -0.23883989 350.53536667 -0.24243089 352.01648148 -0.25362138 C365.9250861 -0.35168608 376.51766896 2.37919342 387.36252308 11.25726891 C388.06119495 11.80769859 388.75986683 12.35812828 389.47971058 12.92523766 C398.71156599 21.06148376 404.78508822 34.78938363 405.61552274 46.96742266 C405.61763602 48.89342593 405.61763602 48.89342593 405.61979198 50.85833836 C405.62329806 51.58292155 405.62680413 52.30750474 405.63041645 53.05404499 C405.63968641 55.47091912 405.63481861 57.88754996 405.62994862 60.30443382 C405.6336871 62.0592402 405.63828942 63.81404492 405.64367926 65.568847 C405.65590022 70.38276382 405.65564985 75.1966111 405.65329051 80.01053989 C405.65288211 85.20566303 405.6639237 90.40076393 405.67340565 95.59587669 C405.69001187 105.7713088 405.69551503 115.94671773 405.6966304 126.12216225 C405.69758109 134.39465184 405.70169244 142.66713379 405.70803165 150.93962097 C405.72564334 174.40029314 405.73487068 197.86094702 405.73337071 221.32162585 C405.73329079 222.58614734 405.73321088 223.85066882 405.73312855 225.15350914 C405.73304679 226.41957699 405.73296503 227.68564483 405.73288079 228.99007837 C405.73206799 249.50557395 405.75120414 270.02099609 405.77940528 290.53647044 C405.80814209 311.60813295 405.82194512 332.67975965 405.82021773 353.75144225 C405.81955409 365.57893876 405.82503516 377.40635828 405.84657383 389.23383713 C405.86479611 399.3046548 405.86912433 409.3753606 405.85555498 419.44618764 C405.84903057 424.58198286 405.84888921 429.71756351 405.86626148 434.85333824 C405.88202043 439.56068953 405.87909972 444.26765661 405.86169322 448.97499869 C405.85862954 450.67215498 405.86223175 452.36934014 405.87341337 454.06646236 C405.97671259 470.86615997 402.52236077 486.06257259 390.61252308 498.56976891 C378.41141757 510.07679955 366.53416952 512.71798965 350.1114397 512.64494896 C348.57621908 512.64912725 347.04100155 512.65460748 345.5057897 512.66126877 C341.30817235 512.675677 337.11075213 512.6714932 332.9131242 512.66410196 C328.37792297 512.65936114 323.84276382 512.67188817 319.30757618 512.68211937 C310.43116385 512.69929446 301.55482235 512.7001501 292.67839772 512.69490647 C285.46238047 512.69086134 278.24638411 512.69231239 271.03036785 512.69765472 C270.00246432 512.69840315 268.97456079 512.69915157 267.91550867 512.69992267 C265.82718305 512.70145418 263.73885743 512.70299253 261.65053182 512.70453764 C242.07749802 512.71825787 222.50450422 512.71282821 202.93147134 512.70135242 C185.03368678 512.69141925 167.13600559 512.70436304 149.23823697 512.72828662 C130.84916472 512.75268125 112.4601406 512.76228467 94.07105249 512.75563389 C83.75159921 512.75214265 73.43222542 512.75436754 63.11278439 512.77188492 C54.32872485 512.78661137 45.54480081 512.78723643 36.76074392 512.76981401 C32.2813624 512.76130557 27.8022229 512.75915067 23.32285404 512.77446556 C19.21766431 512.78832713 15.1129236 512.78353084 11.00775974 512.76422632 C9.52738951 512.76047052 8.04698318 512.76337618 6.56664515 512.77383798 C-8.18217724 512.87061041 -20.06767929 509.04431337 -31.11794567 499.00336266 C-44.19620172 485.35553431 -47.13300898 469.48176736 -46.93044567 451.21039391 C-46.92483529 449.7029723 -46.92057203 448.19554515 -46.91758251 446.68811607 C-46.90624695 442.76227699 -46.8768804 438.83678247 -46.84347057 434.9110775 C-46.81252296 430.88850118 -46.79902497 426.86586801 -46.7839613 422.84320641 C-46.75199705 414.9810709 -46.70094159 407.11921302 -46.63747692 399.25726891 C-48.27643932 399.26814537 -48.27643932 399.26814537 -49.94851208 399.27924156 C-51.39952052 399.28510659 -52.85052969 399.2907938 -54.30153942 399.29633141 C-55.37867199 399.30418663 -55.37867199 399.30418663 -56.47756481 399.31220055 C-66.56226714 399.34103046 -74.53714273 397.6286242 -82.63747692 391.25726891 C-89.48219322 384.2947659 -94.67560445 375.0546577 -94.81447887 365.12225914 C-94.82731411 364.31719429 -94.84014935 363.51212944 -94.85337353 362.68266869 C-94.86445393 361.3873497 -94.86445393 361.3873497 -94.87575817 360.06586266 C-94.88382992 359.16537697 -94.89190166 358.26489128 -94.90021801 357.33711815 C-94.91403727 355.42990594 -94.92476906 353.52266922 -94.93264294 351.6154232 C-94.94412499 349.68077827 -94.96451647 347.74616406 -94.99416637 345.81171227 C-95.21942976 331.10415248 -94.7464392 318.98999751 -84.19997692 307.63226891 C-72.35462114 296.65364647 -64.26031807 298.25726891 -46.63747692 298.25726891 C-46.63747692 270.53726891 -46.63747692 242.81726891 -46.63747692 214.25726891 C-53.89747692 214.25726891 -61.15747692 214.25726891 -68.63747692 214.25726891 C-80.32360626 209.8749704 -86.77725389 204.82027466 -91.94997692 193.50726891 C-93.71390801 189.36910146 -94.75139869 185.63379925 -94.81447887 181.12225914 C-94.82731411 180.31719429 -94.84014935 179.51212944 -94.85337353 178.68266869 C-94.86076046 177.8191227 -94.86814739 176.95557671 -94.87575817 176.06586266 C-94.88382992 175.16537697 -94.89190166 174.26489128 -94.90021801 173.33711815 C-94.91403727 171.42990594 -94.92476906 169.52266922 -94.93264294 167.6154232 C-94.94412499 165.68077827 -94.96451647 163.74616406 -94.99416637 161.81171227 C-95.2175673 147.22575367 -94.50426645 134.89327586 -84.63747692 123.25726891 C-75.74000901 114.97591893 -66.00372034 113.05437671 -54.19997692 113.19476891 C-53.10266247 113.20153648 -53.10266247 113.20153648 -51.98318005 113.20844078 C-50.20124273 113.22008743 -48.4193483 113.23801699 -46.63747692 113.25726891 C-46.64635937 112.4386689 -46.65524181 111.62006889 -46.66439342 110.77666283 C-46.74511958 102.99652804 -46.80573229 95.21660125 -46.84472561 87.43615437 C-46.86544759 83.43778363 -46.8934766 79.43976389 -46.93923473 75.44159508 C-46.98325103 71.57063053 -47.00672912 67.69999984 -47.01698589 63.82880402 C-47.02427876 62.3646635 -47.03851401 60.90053765 -47.06039715 59.43654251 C-47.26331836 45.27534498 -45.30891392 31.89063494 -36.63747692 20.25726891 C-36.01228161 19.41551109 -35.3870863 18.57375328 -34.74294567 17.70648766 C-26.18995261 7.24930318 -13.71893536 0.01724345 0 0 Z M-8.29598522 37.68367577 C-14.65516592 45.14310553 -14.17044607 54.06217746 -14.02810192 63.35492516 C-14.02062707 64.79937005 -14.01494003 66.24382519 -14.01095104 67.68828392 C-13.99579217 71.46140881 -13.95659733 75.23390247 -13.91213512 79.00678062 C-13.87096964 82.86818469 -13.85289497 86.7296923 -13.83278942 90.59125328 C-13.79009117 98.14687734 -13.72196147 105.70198415 -13.63747692 113.25726891 C-12.9931068 113.29167076 -12.34873669 113.32607262 -11.6848402 113.36151695 C-8.70893087 113.53335773 -5.7362162 113.73886661 -2.76247692 113.94476891 C-1.7492738 113.998265 -0.73607067 114.05176109 0.30783558 114.10687828 C9.30039199 114.76979109 17.93205329 117.64817496 24.36252308 124.25726891 C30.74364925 133.28901672 33.834792 141.90026967 33.79611683 152.93695641 C33.80135868 153.83036736 33.80660053 154.72377831 33.81200123 155.64426231 C33.81838269 157.52160167 33.81713512 159.39898122 33.808568 161.27631187 C33.8000647 164.11835933 33.82886276 166.95838829 33.86056995 169.80023766 C33.91706705 184.28375609 32.08366076 195.22832636 21.70236683 205.97601891 C11.55486547 215.40695411 0.3067032 213.62344254 -13.63747692 214.25726891 C-13.63747692 241.97726891 -13.63747692 269.69726891 -13.63747692 298.25726891 C-6.37747692 298.58726891 0.88252308 298.91726891 8.36252308 299.25726891 C20.01692392 303.62766922 26.10194217 309.28462188 31.30392933 320.55805016 C32.74778359 324.23961213 33.48424798 327.43882468 33.53952503 331.39227867 C33.55877789 332.59987595 33.55877789 332.59987595 33.57841969 333.83186913 C33.58580662 334.69541512 33.59319355 335.55896111 33.60080433 336.44867516 C33.60887608 337.34916084 33.61694782 338.24964653 33.62526417 339.17741966 C33.63908343 341.08463187 33.64981522 342.99186859 33.65768909 344.89911461 C33.66917115 346.83375954 33.68956262 348.76837375 33.71921253 350.70282555 C33.93957982 365.09071656 33.39032868 377.90420266 23.36252308 389.25726891 C17.47964582 394.10076855 11.5036246 397.29092577 3.84299183 397.89008141 C2.31061878 398.015765 2.31061878 398.015765 0.7472887 398.14398766 C-0.30780895 398.22262047 -1.36290661 398.30125328 -2.44997692 398.38226891 C-3.52441051 398.46863609 -4.59884411 398.55500328 -5.7058363 398.64398766 C-8.34924335 398.85546022 -10.99300481 399.05964045 -13.63747692 399.25726891 C-13.75384741 407.55941924 -13.84243103 415.86122307 -13.89653778 424.16399002 C-13.92251984 428.02024795 -13.9577051 431.87594377 -14.01467419 435.73187828 C-14.06940673 439.46019623 -14.0989829 443.18797702 -14.11186314 446.91666603 C-14.12102987 448.33194104 -14.13892892 449.74719002 -14.1661272 451.16223335 C-14.32679205 459.87571905 -13.89068187 467.02637683 -8.63747692 474.25726891 C-3.14037767 479.49156692 1.95032193 480.37989844 9.44993687 480.38869667 C11.29577716 480.39445839 11.29577716 480.39445839 13.17890716 480.4003365 C14.54144309 480.39955632 15.90397897 480.39867754 17.26651478 480.3977108 C18.71634635 480.40029527 20.16617721 480.40330866 21.61600709 480.4067142 C25.60069238 480.4147777 29.58535966 480.41657341 33.57005215 480.41731167 C37.86738664 480.41916334 42.16471181 480.42671122 46.4620409 480.43344688 C55.85874236 480.4470258 65.25543956 480.45305415 74.6521492 480.45745754 C80.51961005 480.46022053 86.38706926 480.46445798 92.254529 480.46896172 C108.50040935 480.48115348 124.74628837 480.49145319 140.99217319 480.49483681 C142.03183269 480.49505637 143.07149219 480.49527594 144.14265652 480.49550216 C145.70586961 480.49582958 145.70586961 480.49582958 147.30066276 480.49616361 C149.4124287 480.49660707 151.52419464 480.49705364 153.63596058 480.49750328 C155.20722273 480.49783543 155.20722273 480.49783543 156.81022754 480.49817428 C173.78494789 480.5021226 190.75962531 480.51957808 207.73432907 480.5428628 C225.16271379 480.56657687 242.59107697 480.57903867 260.01947808 480.58020473 C269.80461385 480.58112142 279.58969368 480.58687238 289.37481403 480.60502434 C297.70667765 480.62042601 306.03846804 480.62554536 314.37034318 480.61728624 C318.62055734 480.61338006 322.87062404 480.61430773 327.12082005 480.62834358 C331.0144675 480.64108428 334.90785671 480.63988359 338.80150381 480.62775287 C340.207295 480.62579617 341.61310449 480.62887309 343.01886997 480.63759723 C355.47080429 480.78438697 355.47080429 480.78438697 366.48361683 475.60883141 C366.91803089 475.03906578 367.35244495 474.46930016 367.80002308 473.88226891 C368.25248402 473.31765953 368.70494495 472.75305016 369.17111683 472.17133141 C372.07813105 467.50104627 372.61368902 463.60985946 372.61979198 458.13631535 C372.6250511 457.07264637 372.6250511 457.07264637 372.63041645 455.98748913 C372.63973941 453.60522579 372.63480487 451.22320642 372.62994862 448.84093285 C372.63368443 447.11815053 372.63828567 445.39536991 372.64367926 443.67259198 C372.65593323 438.9334564 372.65564597 434.19439129 372.65329051 429.45524347 C372.65288295 424.34605337 372.66391567 419.23688605 372.67340565 414.12770653 C372.69002971 404.11596943 372.69551583 394.10425588 372.6966304 384.09250613 C372.6975802 375.95577135 372.70168708 367.81904434 372.70803165 359.68231201 C372.72564783 336.62128724 372.73486993 313.56028109 372.73337071 290.49924954 C372.73329079 289.25561419 372.73321088 288.01197884 372.73312855 286.73065758 C372.73300591 284.8629311 372.73300591 284.8629311 372.73288079 282.95747278 C372.73206776 262.77466752 372.7512087 242.59193686 372.77940528 222.40915319 C372.80811823 201.69356361 372.82194645 180.97801044 372.82021773 160.26240045 C372.81955328 148.6289612 372.82506951 136.99560015 372.84657383 125.3621788 C372.8647647 115.45766487 372.86915018 105.5532646 372.85555498 95.64874121 C372.8490148 90.59459575 372.84894606 85.5406685 372.86626148 80.48654366 C372.88195074 75.85951654 372.87917105 71.2328814 372.86169322 66.60586409 C372.85861417 64.93226009 372.86228968 63.25862714 372.87341337 61.58505728 C373.12339917 48.75302891 373.12339917 48.75302891 367.02143705 37.75696534 C359.75170873 30.96508366 350.47952514 31.97131906 341.20456409 32.00330162 C339.75158024 32.00099583 338.29859755 31.99781851 336.84561729 31.99384713 C332.86156121 31.98550674 328.87760108 31.98962097 324.89354467 31.99581957 C320.59355523 32.00034613 316.29358225 31.99335928 311.99359608 31.98785973 C303.57332351 31.97896628 295.1530866 31.98088753 286.73281264 31.98668501 C279.88950066 31.99120168 273.04619867 31.99181438 266.20288563 31.98963737 C265.22892796 31.98933091 264.25497029 31.98902444 263.25149876 31.98870869 C261.27292561 31.98806924 259.29435247 31.98742081 257.31577933 31.98676351 C238.7624832 31.98106036 220.20920684 31.98761788 201.65591395 31.99836424 C185.73616699 32.00729974 169.8164492 32.00574769 153.89670277 31.99652672 C135.40981376 31.98582383 116.92294208 31.98160968 98.43605042 31.98775125 C96.46475379 31.98838834 94.49345716 31.98901709 92.52216053 31.98963737 C91.55224361 31.98994593 90.5823267 31.99025448 89.58301836 31.99057238 C82.74788851 31.99229926 75.91276964 31.98938435 69.07764149 31.98467827 C60.7479716 31.97906924 52.4183394 31.98058637 44.08867383 31.99123976 C39.83872767 31.99649615 35.58884436 31.99855373 31.33889866 31.99194145 C27.44794509 31.98597926 23.5571126 31.98926158 19.66617 31.99989656 C18.25913197 32.00212943 16.8520837 32.0009968 15.44505227 31.99614498 C2.62969701 31.68602497 2.62969701 31.68602497 -8.29598522 37.68367577 Z M-60.63747692 146.25726891 C-62.11107997 149.204475 -61.77981288 152.18762258 -61.77028942 155.41742516 C-61.77124615 156.12249702 -61.77220287 156.82756889 -61.77318859 157.55400658 C-61.77386921 159.04436902 -61.77202313 160.53473442 -61.76784801 162.02509117 C-61.7624901 164.31413948 -61.76780101 166.60299228 -61.77419567 168.89203453 C-61.77353503 170.33799851 -61.77225414 171.78396236 -61.77028942 173.22992516 C-61.77231365 173.9184507 -61.77433788 174.60697624 -61.77642345 175.3163662 C-62.03738265 178.56683588 -62.03738265 178.56683588 -60.63747692 181.25726891 C-58.74048843 181.35642685 -56.83978905 181.38526205 -54.9402113 181.38666344 C-53.72224865 181.3898156 -52.504286 181.39296776 -51.2494154 181.39621544 C-49.91001887 181.39442566 -48.57062268 181.3923747 -47.23122692 181.39008141 C-45.86741652 181.3907545 -44.50360624 181.39172457 -43.13979626 181.39298058 C-40.27817171 181.39445728 -37.41657832 181.39230387 -34.55495739 181.38764 C-30.87929078 181.38194271 -27.20369718 181.38522186 -23.52803326 181.39121246 C-20.71085589 181.39481881 -17.89369594 181.39367915 -15.07651806 181.39108467 C-13.72087629 181.39041561 -12.36523296 181.39124311 -11.00959301 181.39356422 C-9.11797648 181.39609192 -7.22635443 181.39155904 -5.33474255 181.38666344 C-4.25632092 181.38586784 -3.17789928 181.38507225 -2.06679821 181.38425255 C0.31121488 181.53165437 0.31121488 181.53165437 1.36252308 180.25726891 C1.46333395 177.90495192 1.50225247 175.58264944 1.49533558 173.22992516 C1.4962923 172.52581001 1.49724903 171.82169487 1.49823475 171.0962429 C1.49891649 169.60410027 1.4970626 168.1119547 1.49289417 166.61981773 C1.48755371 164.33288472 1.49283518 162.04614883 1.49924183 159.75922203 C1.49858089 158.31195597 1.4972994 156.86469003 1.49533558 155.41742516 C1.49735981 154.73092384 1.49938404 154.04442253 1.50146961 153.33711815 C1.52905567 149.67390066 1.52905567 149.67390066 0.36252308 146.25726891 C-19.76747692 146.25726891 -39.89747692 146.25726891 -60.63747692 146.25726891 Z M-61.63747692 332.25726891 C-61.73828779 334.60958589 -61.77720631 336.93188837 -61.77028942 339.28461266 C-61.77124615 339.9887278 -61.77220287 340.69284294 -61.77318859 341.41829491 C-61.77387034 342.91043754 -61.77201644 344.40258311 -61.76784801 345.89472008 C-61.76250755 348.18165309 -61.76778902 350.46838898 -61.77419567 352.75531578 C-61.77353473 354.20258184 -61.77225324 355.64984778 -61.77028942 357.09711266 C-61.77231365 357.78361397 -61.77433788 358.47011528 -61.77642345 359.17741966 C-61.80400952 362.84063715 -61.80400952 362.84063715 -60.63747692 366.25726891 C-40.50747692 366.25726891 -20.37747692 366.25726891 0.36252308 366.25726891 C1.83612613 363.31006281 1.50485904 360.32691523 1.49533558 357.09711266 C1.4962923 356.39204079 1.49724903 355.68696892 1.49823475 354.96053123 C1.49891537 353.4701688 1.49706929 351.97980339 1.49289417 350.48944664 C1.48753626 348.20039833 1.49284717 345.91154553 1.49924183 343.62250328 C1.49858118 342.1765393 1.4973003 340.73057545 1.49533558 339.28461266 C1.49735981 338.59608711 1.49938404 337.90756157 1.50146961 337.19817162 C1.7624288 333.94770193 1.7624288 333.94770193 0.36252308 331.25726891 C-1.53446541 331.15811096 -3.43516479 331.12927577 -5.33474255 331.12787437 C-6.55270519 331.12472221 -7.77066784 331.12157005 -9.02553844 331.11832237 C-10.36493497 331.12011216 -11.70433116 331.12216311 -13.04372692 331.12445641 C-14.40753732 331.12378331 -15.7713476 331.12281324 -17.13515759 331.12155724 C-19.99678213 331.12008053 -22.85837552 331.12223394 -25.71999645 331.12689781 C-29.39566306 331.1325951 -33.07125666 331.12931595 -36.74692059 331.12332535 C-39.56409796 331.119719 -42.3812579 331.12085866 -45.19843578 331.12345314 C-46.55407755 331.1241222 -47.90972088 331.1232947 -49.26536083 331.12097359 C-51.15697736 331.11844589 -53.04859941 331.12297877 -54.9402113 331.12787437 C-56.01863293 331.12866997 -57.09705456 331.12946556 -58.20815563 331.13028526 C-60.58616872 330.98288344 -60.58616872 330.98288344 -61.63747692 332.25726891 Z " fill="#000000" transform="translate(100.63747692108154,-0.25726890563964844)"/>
<path d="M0 0 C35.75853689 -0.92678713 68.06057549 12.48479282 94.16748047 36.58691406 C116.69516418 58.18070334 130.42824456 89.73438008 131.2097168 120.78833008 C131.40415421 141.32998511 126.44449023 160.28513389 112.8046875 176.15625 C112.28519531 176.81753906 111.76570312 177.47882813 111.23046875 178.16015625 C102.39381546 189.01543896 88.80124014 196.84629825 74.78125 198.37719727 C60.46474772 199.19236561 47.87361198 196.20219965 35.8046875 188.15625 C34.36380412 186.87038229 32.94538721 185.55873321 31.5546875 184.21875 C28.56390153 181.41926542 28.56390153 181.41926542 24.4296875 181.09375 C23.2334375 181.444375 22.0371875 181.795 20.8046875 182.15625 C5.10949223 185.99656374 -10.56867097 184.78037854 -24.7578125 176.78125 C-26.59284749 175.60742195 -28.40854617 174.40232053 -30.1953125 173.15625 C-30.85917969 172.69476563 -31.52304687 172.23328125 -32.20703125 171.7578125 C-42.06102456 164.0960559 -49.62152156 151.17815155 -51.9140625 138.921875 C-53.63842188 121.96567439 -51.98492116 106.21930935 -41.05078125 92.45703125 C-38.83953894 89.93689308 -36.56363003 87.52875184 -34.1953125 85.15625 C-33.63070312 84.58003906 -33.06609375 84.00382812 -32.484375 83.41015625 C-21.90853193 73.47918166 -6.88432499 69.41278291 7.34765625 69.80859375 C20.95696958 71.17721396 33.70630594 75.39824239 43.46484375 85.34765625 C46.4896666 89.43072616 47.04656872 93.20130255 46.98071289 98.1965332 C46.97153336 99.39159988 46.96235382 100.58666656 46.95289612 101.81794739 C46.93621384 103.10134506 46.91953156 104.38474274 46.90234375 105.70703125 C46.89607216 107.73624638 46.89635034 109.76540348 46.89654446 111.79462719 C46.89640126 116.78536844 46.8813597 121.77512665 46.80834961 126.76538086 C46.75876376 130.24720664 46.75348232 133.72675093 46.77648735 137.20882225 C46.77732589 139.16536267 46.73109672 141.12174288 46.68385315 143.07771301 C46.71225481 149.86181799 46.71225481 149.86181799 49.75411987 155.7281189 C55.95193344 161.35409135 61.99101365 164.81738654 70.53515625 164.51171875 C77.32361726 163.44846582 83.48374289 159.09000119 87.68359375 153.78125 C97.11464308 139.07669049 99.10633652 124.4964128 95.67089844 107.47607422 C92.57209345 94.02430347 86.96175282 82.28514937 78.8046875 71.15625 C77.86302734 69.84333984 77.86302734 69.84333984 76.90234375 68.50390625 C62.80037936 49.78780218 40.2585395 38.72256266 17.51953125 34.7578125 C15.2766797 34.45659469 13.06442817 34.278699 10.8046875 34.15625 C9.86496094 34.10339844 8.92523438 34.05054688 7.95703125 33.99609375 C-18.73554904 33.23533867 -43.15725678 43.90049227 -62.4453125 61.96875 C-80.32628909 80.75318646 -89.03768914 105.8952307 -88.44140625 131.5703125 C-87.39376641 156.3905161 -76.26583814 179.29340801 -58.1953125 196.15625 C-39.3005474 213.28559513 -14.57460888 221.3755905 10.8046875 220.15625 C13.16328593 219.85587479 15.51788166 219.52227445 17.8671875 219.15625 C35.27513257 216.52279001 35.27513257 216.52279001 41.4296875 220.90625 C44.9369767 223.83639035 46.59272161 226.38658129 47.140625 230.9609375 C47.27409413 241.45161144 47.27409413 241.45161144 42.8046875 246.15625 C32.92320733 255.25761331 14.03625976 254.45574848 1.33203125 254.3046875 C-23.0824819 253.2772772 -47.19332976 246.54936814 -67.1953125 232.15625 C-68.22914063 231.41761719 -69.26296875 230.67898438 -70.328125 229.91796875 C-98.222911 209.48944517 -115.46966145 180.13725095 -121.1953125 146.15625 C-125.91487058 113.30114462 -118.07828411 78.86809801 -98.1953125 52.15625 C-75.84206411 22.78464958 -46.3955028 6.61318736 -10.3671875 0.69140625 C-6.91565133 0.27425039 -3.4710008 0.16973109 0 0 Z M-15.1953125 113.15625 C-19.82325585 119.18817617 -20.14201553 125.78193162 -19.1953125 133.15625 C-17.34609621 140.25919998 -12.02237293 145.01388391 -6.1953125 149.15625 C0.75525764 152.08280585 6.82919637 151.94644645 13.8046875 149.15625 C13.8046875 134.63625 13.8046875 120.11625 13.8046875 105.15625 C2.25651102 100.53697941 -7.06683712 104.23650711 -15.1953125 113.15625 Z " fill="#000000" transform="translate(293.1953125,128.84375)"/>
</svg>
